<?xml version="1.0" encoding="utf-8"?>
<!-- Generator: Adobe Illustrator 17.0.0, SVG Export Plug-In . SVG Version: 6.00 Build 0)  -->
<!DOCTYPE svg PUBLIC "-//W3C//DTD SVG 1.1//EN" "http://www.w3.org/Graphics/SVG/1.1/DTD/svg11.dtd">
<svg version="1.1" id="Layer_1" xmlns:sketch="http://www.bohemiancoding.com/sketch/ns"
	 xmlns="http://www.w3.org/2000/svg" xmlns:xlink="http://www.w3.org/1999/xlink" x="0px" y="0px" width="738px" height="560px"
	 viewBox="0 0 738 560" enable-background="new 0 0 738 560" xml:space="preserve">
<title>design-eraser-clear-clean-tool-editor-school</title>
<desc>Created with Sketch.</desc>
<path fill="#25333C" stroke="#25333C" stroke-width="8" stroke-miterlimit="10" d="M369,466.387
	c-60.47,0-117.321-23.548-160.08-66.307c-42.759-42.759-66.307-99.61-66.307-160.08c0-60.47,23.548-117.321,66.307-160.08
	C251.679,37.161,308.53,13.613,369,13.613c60.47,0,117.321,23.548,160.08,66.307c42.759,42.759,66.307,99.61,66.307,160.08
	c0,60.47-23.548,117.321-66.307,160.08S429.47,466.387,369,466.387z M369,27.613c-117.111,0-212.387,95.276-212.387,212.387
	c0,117.11,95.276,212.387,212.387,212.387c117.11,0,212.387-95.276,212.387-212.387C581.387,122.889,486.11,27.613,369,27.613z"/>
<rect x="213" y="233" fill="#25333C" stroke="#25333C" stroke-width="8" stroke-miterlimit="10" width="312" height="14"/>
<rect x="362" y="84" fill="#25333C" stroke="#25333C" stroke-width="8" stroke-miterlimit="10" width="14" height="312"/>
</svg>
